<?xml version="1.0" encoding="utf-8"?>
<!-- Generator: Adobe Illustrator 16.0.4, SVG Export Plug-In . SVG Version: 6.00 Build 0)  -->
<!DOCTYPE svg PUBLIC "-//W3C//DTD SVG 1.1//EN" "http://www.w3.org/Graphics/SVG/1.1/DTD/svg11.dtd">
<svg version="1.1" id="Layer_1" xmlns="http://www.w3.org/2000/svg" xmlns:xlink="http://www.w3.org/1999/xlink" x="0px" y="0px"
	 width="2048px" height="2048px" viewBox="0 0 2048 2048" enable-background="new 0 0 2048 2048" xml:space="preserve">
<path fill="#190A43" d="M1812.477,907.624c0-273.729-203.248-457.308-555.653-457.308H220.913l-16.391,376.992
	c121.101-5.851,242.411-9.604,363.78-12.023c-0.44,260.7-2.874,522.099-16.292,782.398h426.165
	c-13.487-261.659-15.875-524.431-16.298-786.484c87.458-0.279,174.865-0.281,262.163-0.281
	c118.017,0,178.662,45.896,178.662,134.406c0,91.79-96.707,152.437-242.587,158.992c68.843,163.91,137.685,326.181,190.136,490.091
	h452.392c-71.27-115.455-140.057-229.671-207.444-344.803C1730.908,1185.061,1812.477,1058.15,1812.477,907.624z"/>
</svg>
