<?xml version="1.0" encoding="utf-8"?>
<!-- Generator: Adobe Illustrator 19.1.0, SVG Export Plug-In . SVG Version: 6.00 Build 0)  -->
<svg version="1.1" id="Layer_1" xmlns="http://www.w3.org/2000/svg" xmlns:xlink="http://www.w3.org/1999/xlink" x="0px" y="0px"
	 viewBox="-1051 2901 200 200" style="enable-background:new -1051 2901 200 200;" xml:space="preserve">
<path d="M-875.1,2992.4c0-26.6-19.7-44.4-53.9-44.4h-100.6l-1.6,36.6c11.8-0.6,23.5-0.9,35.3-1.2c0,25.3-0.3,50.7-1.6,75.9h41.4
	c-1.3-25.4-1.5-50.9-1.6-76.3c8.5,0,17,0,25.4,0c11.5,0,17.3,4.5,17.3,13c0,8.9-9.4,14.8-23.5,15.4c6.7,15.9,13.4,31.7,18.5,47.6
	h43.9c-6.9-11.2-13.6-22.3-20.1-33.5C-883,3019.3-875.1,3007-875.1,2992.4z"/>
</svg>
